<svg width="32" height="32" viewBox="0 0 32 32" fill="none" xmlns="http://www.w3.org/2000/svg">
<path d="M32 16C32 24.8366 24.8366 32 16 32C7.16344 32 0 24.8366 0 16C0 7.16344 7.16344 0 16 0C24.8366 0 32 7.16344 32 16Z" fill="white"/>
<path fill-rule="evenodd" clip-rule="evenodd" d="M19.9594 5.71605C19.9594 6.69127 19.5287 7.66648 18.9208 8.37012C18.2747 9.14788 17.1601 9.72805 16.2734 9.72817C16.1721 9.72817 16.0707 9.71574 16.0074 9.70343C15.9948 9.65407 15.9694 9.50586 15.9694 9.35776C15.9694 8.37012 16.4888 7.39491 17.0461 6.77768C17.7554 5.97531 18.9334 5.37039 19.9214 5.33333C19.9468 5.44449 19.9594 5.58027 19.9594 5.71605ZM23.444 11.8591C23.4686 11.8433 23.4855 11.8325 23.4934 11.8266C22.1761 9.98731 20.1747 9.93782 19.6173 9.9377C18.7656 9.9377 18.0033 10.2322 17.3624 10.4798C16.8977 10.6593 16.4968 10.8142 16.172 10.8142C15.8137 10.8142 15.4034 10.6526 14.9456 10.4723C14.3676 10.2446 13.7137 9.98707 12.9928 9.98707C10.5609 9.98707 8.0909 11.9499 8.0909 15.6533C8.0909 17.9617 9.00287 20.3936 10.1302 21.9614C11.1054 23.2946 11.9541 24.381 13.1701 24.381C13.7468 24.381 14.1696 24.206 14.6142 24.0221C15.1072 23.8182 15.6269 23.6032 16.4128 23.6032C17.2063 23.6032 17.6806 23.805 18.1382 23.9997C18.5644 24.1811 18.976 24.3562 19.6174 24.3562C20.9473 24.3562 21.8214 23.1835 22.6573 22.0108C23.5947 20.6776 23.9874 19.369 24 19.3073C23.924 19.2827 21.378 18.2828 21.378 15.4558C21.378 13.1805 23.1123 12.0712 23.444 11.8591Z" fill="black"/>
</svg>
