<svg width="32" height="32" viewBox="0 0 32 32" fill="none" xmlns="http://www.w3.org/2000/svg">
<path d="M32 16C32 24.8366 24.8366 32 16 32C7.16344 32 0 24.8366 0 16C0 7.16344 7.16344 0 16 0C24.8366 0 32 7.16344 32 16Z" fill="white"/>
<path d="M26 16.24C26 15.5378 25.9384 14.8711 25.8328 14.2222H15.891V18.2311H21.5833C21.3282 19.5467 20.5804 20.6578 19.4718 21.4133V24.08H22.8679C24.8562 22.2222 26 19.4844 26 16.24Z" fill="#4285F4"/>
<path d="M15.891 26.6667C18.7415 26.6667 21.1258 25.7067 22.8679 24.08L19.4718 21.4133C18.5216 22.0533 17.3162 22.4444 15.891 22.4444C13.1372 22.4444 10.8057 20.5689 9.96985 18.0356H6.46822V20.7822C8.20144 24.2667 11.7647 26.6667 15.891 26.6667Z" fill="#34A853"/>
<path d="M9.96985 18.0356C9.7499 17.3956 9.63555 16.7111 9.63555 16C9.63555 15.2889 9.75872 14.6044 9.96988 13.9644V11.2178H6.46824C5.7468 12.6578 5.33329 14.2756 5.33329 16C5.33329 17.7244 5.74678 19.3422 6.46822 20.7822L9.96985 18.0356Z" fill="#FBBC05"/>
<path d="M15.891 9.55556C17.4482 9.55556 18.8383 10.0978 19.9381 11.1556L22.947 8.11556C21.1258 6.39112 18.7415 5.33334 15.891 5.33334C11.7647 5.33334 8.20146 7.73333 6.46824 11.2178L9.96988 13.9644C10.8057 11.4311 13.1372 9.55556 15.891 9.55556Z" fill="#EA4335"/>
</svg>
