<svg width="48" height="48" viewBox="0 0 48 48" fill="none" xmlns="http://www.w3.org/2000/svg">
<g clip-path="url(#clip0_12479_125)">
<path d="M24.002 9.59998C17.602 9.59998 13.602 12.8 12.002 19.2C14.402 16 17.202 14.8 20.402 15.6C22.228 16.056 23.532 17.38 24.978 18.848C27.332 21.236 30.054 24 36.002 24C42.402 24 46.402 20.8 48.002 14.4C45.602 17.6 42.802 18.8 39.602 18C37.776 17.544 36.472 16.22 35.026 14.752C32.674 12.364 29.952 9.59998 24.002 9.59998ZM12.002 24C5.60201 24 1.60201 27.2 0.00201416 33.6C2.40201 30.4 5.20201 29.2 8.40201 30C10.228 30.456 11.532 31.78 12.978 33.248C15.332 35.636 18.054 38.4 24.002 38.4C30.402 38.4 34.402 35.2 36.002 28.8C33.602 32 30.802 33.2 27.602 32.4C25.776 31.944 24.472 30.62 23.026 29.152C20.674 26.764 17.952 24 12.002 24Z" fill="black"/>
</g>
<defs>
<clipPath id="clip0_12479_125">
<rect width="48" height="48" fill="white"/>
</clipPath>
</defs>
</svg>
