<svg width="48" height="48" viewBox="0 0 48 48" fill="none" xmlns="http://www.w3.org/2000/svg">
    <g clip-path="url(#clip0_12479_120)">
        <path d="M24.004 0C22.8697 0 21.7818 0.450611 20.9797 1.2527C20.1776 2.0548 19.727 3.14267 19.727 4.277C19.727 5.41133 20.1776 6.4992 20.9797 7.3013C21.7818 8.10339 22.8697 8.554 24.004 8.554C25.1383 8.554 26.2262 8.10339 27.0283 7.3013C27.8304 6.4992 28.281 5.41133 28.281 4.277C28.281 3.14267 27.8304 2.0548 27.0283 1.2527C26.2262 0.450611 25.1383 0 24.004 0ZM41.084 9.862C39.9497 9.862 38.8618 10.3126 38.0597 11.1147C37.2576 11.9168 36.807 13.0047 36.807 14.139C36.807 15.2733 37.2576 16.3612 38.0597 17.1633C38.8618 17.9654 39.9497 18.416 41.084 18.416C42.2183 18.416 43.3062 17.9654 44.1083 17.1633C44.9104 16.3612 45.361 15.2733 45.361 14.139C45.361 13.0047 44.9104 11.9168 44.1083 11.1147C43.3062 10.3126 42.2183 9.862 41.084 9.862ZM41.084 29.586C39.9497 29.586 38.8618 30.0366 38.0597 30.8387C37.2576 31.6408 36.807 32.7287 36.807 33.863C36.807 34.9973 37.2576 36.0852 38.0597 36.8873C38.8618 37.6894 39.9497 38.14 41.084 38.14C42.2183 38.14 43.3062 37.6894 44.1083 36.8873C44.9104 36.0852 45.361 34.9973 45.361 33.863C45.361 32.7287 44.9104 31.6408 44.1083 30.8387C43.3062 30.0366 42.2183 29.586 41.084 29.586ZM24.004 39.448C22.8699 39.448 21.7823 39.8985 20.9804 40.7004C20.1785 41.5023 19.728 42.5899 19.728 43.724C19.728 44.8581 20.1785 45.9457 20.9804 46.7476C21.7823 47.5495 22.8699 48 24.004 48C25.1381 48 26.2257 47.5495 27.0276 46.7476C27.8295 45.9457 28.28 44.8581 28.28 43.724C28.28 42.5899 27.8295 41.5023 27.0276 40.7004C26.2257 39.8985 25.1381 39.448 24.004 39.448ZM6.92001 29.588C6.35847 29.588 5.80244 29.6986 5.28365 29.9135C4.76486 30.1284 4.29348 30.4433 3.89642 30.8404C3.49935 31.2375 3.18439 31.7089 2.9695 32.2276C2.75461 32.7464 2.64401 33.3025 2.64401 33.864C2.64401 34.4255 2.75461 34.9816 2.9695 35.5004C3.18439 36.0191 3.49935 36.4905 3.89642 36.8876C4.29348 37.2847 4.76486 37.5996 5.28365 37.8145C5.80244 38.0294 6.35847 38.14 6.92001 38.14C8.05434 38.14 9.14221 37.6894 9.9443 36.8873C10.7464 36.0852 11.197 34.9973 11.197 33.863C11.197 32.7287 10.7464 31.6408 9.9443 30.8387C9.14221 30.0366 8.05434 29.588 6.92001 29.588ZM6.92001 9.862C5.78567 9.862 4.6978 10.3126 3.89571 11.1147C3.09362 11.9168 2.64301 13.0047 2.64301 14.139C2.64301 15.2733 3.09362 16.3612 3.89571 17.1633C4.6978 17.9654 5.78567 18.416 6.92001 18.416C8.05434 18.416 9.14221 17.9654 9.9443 17.1633C10.7464 16.3612 11.197 15.2733 11.197 14.139C11.197 13.0047 10.7464 11.9168 9.9443 11.1147C9.14221 10.3126 8.05434 9.862 6.92001 9.862ZM24.004 3.106L5.90601 13.554V34.45L24.004 44.898L42.098 34.45V13.554L24.004 3.106ZM24.004 6.308L39.324 32.848H8.68001L24.004 6.308ZM21.23 7.05L7.94001 30.074V14.726L21.23 7.05ZM26.778 7.05L40.07 14.726V30.074L26.778 7.05ZM10.71 34.88H37.296L24.004 42.552L10.71 34.88Z" fill="black"/>
    </g>
    <defs>
        <clipPath id="clip0_12479_120">
            <rect width="48" height="48" fill="white"/>
        </clipPath>
    </defs>
</svg>