<svg width="48" height="48" viewBox="0 0 48 48" fill="none" xmlns="http://www.w3.org/2000/svg">
<g clip-path="url(#clip0_12479_132)">
<path d="M33.268 33.008C35.008 32.858 36.354 31.328 36.268 29.5C36.174 27.672 34.676 26.204 32.85 26.204H32.728C31.8218 26.2363 30.9656 26.6272 30.3475 27.2906C29.7294 27.9541 29.4001 28.8358 29.432 29.742C29.492 30.7 29.884 31.48 30.42 32.048C28.324 36.124 25.178 39.12 20.41 41.638C17.204 43.314 13.818 43.946 10.522 43.498C7.76597 43.108 5.60997 41.878 4.28997 39.9C2.31397 36.902 2.13397 33.668 3.77997 30.432C4.97997 28.092 6.77797 26.386 7.97797 25.546C7.61571 24.5415 7.33481 23.5095 7.13797 22.46C-1.73603 28.816 -0.832029 37.504 1.86397 41.61C3.87197 44.606 7.97797 46.522 12.472 46.522C13.672 46.522 14.932 46.434 16.158 46.134C23.952 44.636 29.854 39.962 33.24 33.07L33.268 33.008ZM43.964 25.516C39.324 20.06 32.488 17.064 24.696 17.064H23.676C23.17 15.956 22.002 15.266 20.68 15.266H20.59C18.704 15.266 17.234 16.886 17.296 18.772C17.356 20.568 18.884 22.068 20.712 22.068H20.86C21.5083 22.0429 22.1358 21.8318 22.6674 21.4598C23.199 21.0877 23.6123 20.5706 23.858 19.97H24.968C29.586 19.97 33.958 21.318 37.944 23.954C40.998 25.964 43.188 28.6 44.418 31.748C45.494 34.324 45.436 36.842 44.328 38.942C42.618 42.236 39.74 43.976 35.936 43.976C33.538 43.976 31.202 43.226 30.002 42.688C29.282 43.284 28.082 44.274 27.214 44.874C29.85 46.07 32.518 46.76 35.094 46.76C40.938 46.76 45.282 43.466 46.932 40.288C48.728 36.692 48.58 30.64 43.992 25.456L43.964 25.516ZM12.98 34.084C13.04 35.882 14.566 37.38 16.396 37.38H16.516C16.9663 37.3698 17.4101 37.2696 17.8211 37.0853C18.2322 36.901 18.6022 36.6363 18.9093 36.3068C19.2165 35.9772 19.4546 35.5896 19.6096 35.1666C19.7646 34.7437 19.8334 34.294 19.812 33.844C19.812 32.044 18.254 30.55 16.426 30.55H16.306C16.186 30.55 16.006 30.55 15.854 30.608C13.368 26.412 12.318 21.914 12.71 17.064C12.95 13.408 14.15 10.23 16.304 7.59399C18.104 5.34599 21.49 4.23399 23.798 4.17799C30.27 4.05599 32.968 12.12 33.176 15.326L36.172 16.226C35.482 6.39399 29.372 1.23999 23.528 1.23999C18.04 1.23999 12.98 5.22599 10.94 11.07C8.15397 18.86 9.98197 26.354 13.4 32.348C13.1 32.738 12.92 33.426 12.98 34.084Z" fill="black"/>
</g>
<defs>
<clipPath id="clip0_12479_132">
<rect width="48" height="48" fill="white"/>
</clipPath>
</defs>
</svg>
