<svg width="85" height="16" viewBox="0 0 85 16" fill="none" xmlns="http://www.w3.org/2000/svg">
<path d="M2.88 10.54V7.69997H5.5C6.00667 7.69997 6.44 7.59997 6.8 7.39997C7.17333 7.19997 7.46 6.91997 7.66 6.55997C7.86 6.18664 7.96 5.75997 7.96 5.27997C7.96 4.7733 7.86 4.33997 7.66 3.97997C7.46 3.60664 7.17333 3.32664 6.8 3.13997C6.44 2.93997 6.00667 2.83997 5.5 2.83997H2.88V-3.05176e-05H5.34C6.58 -3.05176e-05 7.64 0.206636 8.52 0.61997C9.41333 1.0333 10.0933 1.61997 10.56 2.37997C11.04 3.13997 11.28 4.0533 11.28 5.11997V5.43997C11.28 6.47997 11.04 7.38664 10.56 8.15997C10.0933 8.91997 9.41333 9.50664 8.52 9.91997C7.64 10.3333 6.58 10.54 5.34 10.54H2.88ZM6.55651e-07 14.72V-3.05176e-05H3.28V14.72H6.55651e-07ZM17.6431 15.1C16.7098 15.1 15.8831 14.94 15.1631 14.62C14.4565 14.3 13.8631 13.8733 13.3831 13.34C12.9165 12.7933 12.5565 12.1866 12.3031 11.52C12.0631 10.84 11.9431 10.1466 11.9431 9.43997V9.03997C11.9431 8.30664 12.0631 7.60664 12.3031 6.93997C12.5565 6.25997 12.9165 5.6533 13.3831 5.11997C13.8498 4.58664 14.4298 4.16664 15.1231 3.85997C15.8298 3.53997 16.6298 3.37997 17.5231 3.37997C18.6965 3.37997 19.6831 3.64664 20.4831 4.17997C21.2965 4.69997 21.9165 5.38664 22.3431 6.23997C22.7698 7.07997 22.9831 7.99997 22.9831 8.99997V10.08H13.2831V8.25997H21.0431L20.0031 9.09997C20.0031 8.44664 19.9098 7.88664 19.7231 7.41997C19.5365 6.9533 19.2565 6.59997 18.8831 6.35997C18.5231 6.10664 18.0698 5.97997 17.5231 5.97997C16.9631 5.97997 16.4898 6.10664 16.1031 6.35997C15.7165 6.6133 15.4231 6.98664 15.2231 7.47997C15.0231 7.95997 14.9231 8.5533 14.9231 9.25997C14.9231 9.9133 15.0165 10.4866 15.2031 10.98C15.3898 11.46 15.6831 11.8333 16.0831 12.1C16.4831 12.3666 17.0031 12.5 17.6431 12.5C18.2298 12.5 18.7098 12.3866 19.0831 12.16C19.4565 11.9333 19.7098 11.6533 19.8431 11.32H22.7831C22.6231 12.0533 22.3098 12.7066 21.8431 13.28C21.3765 13.8533 20.7898 14.3 20.0831 14.62C19.3765 14.94 18.5631 15.1 17.6431 15.1ZM24.7036 14.72V3.75997H27.2436V8.45997H27.1836C27.1836 6.9133 27.5103 5.71997 28.1636 4.87997C28.8303 4.03997 29.7903 3.61997 31.0436 3.61997H31.4636V6.37997H30.6636C29.7836 6.37997 29.1036 6.61997 28.6236 7.09997C28.1436 7.56664 27.9036 8.24664 27.9036 9.13997V14.72H24.7036ZM36.8816 15.06C35.3216 15.06 34.1016 14.74 33.2216 14.1C32.3416 13.46 31.8749 12.56 31.8216 11.4H34.6616C34.7149 11.7466 34.9216 12.06 35.2816 12.34C35.6549 12.6066 36.2082 12.74 36.9416 12.74C37.5016 12.74 37.9616 12.6466 38.3216 12.46C38.6949 12.26 38.8816 11.98 38.8816 11.62C38.8816 11.3 38.7416 11.0466 38.4616 10.86C38.1816 10.66 37.6816 10.52 36.9616 10.44L36.1016 10.36C34.7816 10.2266 33.7882 9.85997 33.1216 9.25997C32.4682 8.65997 32.1416 7.8933 32.1416 6.95997C32.1416 6.18664 32.3349 5.53997 32.7216 5.01997C33.1082 4.49997 33.6416 4.10664 34.3216 3.83997C35.0149 3.5733 35.8016 3.43997 36.6816 3.43997C38.0949 3.43997 39.2349 3.7533 40.1016 4.37997C40.9682 4.9933 41.4216 5.88664 41.4616 7.05997H38.6216C38.5682 6.69997 38.3816 6.39997 38.0616 6.15997C37.7416 5.90664 37.2682 5.77997 36.6416 5.77997C36.1482 5.77997 35.7549 5.8733 35.4616 6.05997C35.1682 6.24664 35.0216 6.49997 35.0216 6.81997C35.0216 7.12664 35.1482 7.35997 35.4016 7.51997C35.6549 7.67997 36.0682 7.7933 36.6416 7.85997L37.5016 7.93997C38.8482 8.08664 39.8949 8.45997 40.6416 9.05997C41.3882 9.65997 41.7616 10.4666 41.7616 11.48C41.7616 12.2133 41.5616 12.8533 41.1616 13.4C40.7616 13.9333 40.1949 14.3466 39.4616 14.64C38.7282 14.92 37.8682 15.06 36.8816 15.06ZM48.7748 15.1C47.8148 15.1 46.9615 14.9533 46.2148 14.66C45.4682 14.3533 44.8348 13.94 44.3148 13.42C43.8082 12.9 43.4215 12.3066 43.1548 11.64C42.8882 10.96 42.7548 10.2466 42.7548 9.49997V9.03997C42.7548 8.27997 42.8882 7.55997 43.1548 6.87997C43.4348 6.18664 43.8348 5.57997 44.3548 5.05997C44.8882 4.53997 45.5282 4.1333 46.2748 3.83997C47.0215 3.5333 47.8548 3.37997 48.7748 3.37997C49.7215 3.37997 50.5615 3.5333 51.2948 3.83997C52.0415 4.1333 52.6748 4.53997 53.1948 5.05997C53.7148 5.57997 54.1148 6.18664 54.3948 6.87997C54.6748 7.55997 54.8148 8.27997 54.8148 9.03997V9.49997C54.8148 10.2466 54.6815 10.96 54.4148 11.64C54.1482 12.3066 53.7548 12.9 53.2348 13.42C52.7282 13.94 52.1015 14.3533 51.3548 14.66C50.6082 14.9533 49.7482 15.1 48.7748 15.1ZM48.7748 12.4C49.4015 12.4 49.9215 12.2666 50.3348 12C50.7482 11.7333 51.0615 11.36 51.2748 10.88C51.5015 10.4 51.6148 9.86664 51.6148 9.27997C51.6148 8.6533 51.5015 8.10664 51.2748 7.63997C51.0482 7.15997 50.7215 6.77997 50.2948 6.49997C49.8815 6.21997 49.3748 6.07997 48.7748 6.07997C48.1882 6.07997 47.6815 6.21997 47.2548 6.49997C46.8282 6.77997 46.5015 7.15997 46.2748 7.63997C46.0615 8.10664 45.9548 8.6533 45.9548 9.27997C45.9548 9.86664 46.0615 10.4 46.2748 10.88C46.4882 11.36 46.8082 11.7333 47.2348 12C47.6615 12.2666 48.1748 12.4 48.7748 12.4ZM56.6481 14.72V3.75997H59.1881V8.45997H59.0081C59.0081 7.33997 59.1481 6.40664 59.4281 5.65997C59.7215 4.9133 60.1615 4.3533 60.7481 3.97997C61.3348 3.60664 62.0481 3.41997 62.8881 3.41997H63.0281C64.3081 3.41997 65.2815 3.83997 65.9481 4.67997C66.6281 5.50664 66.9681 6.76664 66.9681 8.45997V14.72H63.7681V8.27997C63.7681 7.6933 63.5948 7.2133 63.2481 6.83997C62.9015 6.46664 62.4348 6.27997 61.8481 6.27997C61.2481 6.27997 60.7615 6.4733 60.3881 6.85997C60.0281 7.2333 59.8481 7.72664 59.8481 8.33997V14.72H56.6481ZM75.915 14.72V11.48H75.375V7.95997C75.375 7.39997 75.2417 6.97997 74.975 6.69997C74.7083 6.41997 74.2817 6.27997 73.695 6.27997C73.4017 6.27997 73.015 6.28664 72.535 6.29997C72.055 6.3133 71.5617 6.3333 71.055 6.35997C70.5483 6.38664 70.0883 6.4133 69.675 6.43997V3.73997C69.9817 3.7133 70.3417 3.68664 70.755 3.65997C71.1683 3.6333 71.595 3.6133 72.035 3.59997C72.475 3.58664 72.8883 3.57997 73.275 3.57997C74.395 3.57997 75.335 3.73997 76.095 4.05997C76.8683 4.37997 77.455 4.86664 77.855 5.51997C78.255 6.15997 78.455 6.98664 78.455 7.99997V14.72H75.915ZM72.415 15C71.6283 15 70.935 14.86 70.335 14.58C69.7483 14.3 69.2883 13.9 68.955 13.38C68.6217 12.8466 68.455 12.2133 68.455 11.48C68.455 10.68 68.6617 10.0266 69.075 9.51997C69.4883 8.99997 70.0683 8.61997 70.815 8.37997C71.5617 8.12664 72.4217 7.99997 73.395 7.99997H75.735V9.77997H73.375C72.815 9.77997 72.3817 9.91997 72.075 10.2C71.7817 10.4666 71.635 10.8333 71.635 11.3C71.635 11.74 71.7817 12.1 72.075 12.38C72.3817 12.6466 72.815 12.78 73.375 12.78C73.735 12.78 74.055 12.72 74.335 12.6C74.6283 12.4666 74.8683 12.2466 75.055 11.94C75.2417 11.6333 75.3483 11.2066 75.375 10.66L76.135 11.46C76.0683 12.22 75.8817 12.86 75.575 13.38C75.2817 13.9 74.8683 14.3 74.335 14.58C73.815 14.86 73.175 15 72.415 15ZM80.91 14.72V0.11997H84.13V14.72H80.91ZM79.61 2.47997V0.11997H84.13V2.47997H79.61Z" fill="black"/>
</svg>
