<svg width="32" height="32" viewBox="0 0 32 32" fill="none" xmlns="http://www.w3.org/2000/svg">
<path d="M32 16C32 24.8366 24.8366 32 16 32C7.16344 32 0 24.8366 0 16C0 7.16344 7.16344 0 16 0C24.8366 0 32 7.16344 32 16Z" fill="white"/>
<path fill-rule="evenodd" clip-rule="evenodd" d="M24.3115 9.10989C25.2289 9.35165 25.9546 10.0635 26.2011 10.9634C26.653 12.602 26.6667 16 26.6667 16C26.6667 16 26.6667 19.4115 26.2148 21.0366C25.9683 21.9365 25.2426 22.6484 24.3252 22.8901C22.6684 23.3333 16 23.3333 16 23.3333C16 23.3333 9.33162 23.3333 7.6748 22.8901C6.75738 22.6484 6.03166 21.9365 5.78519 21.0366C5.33333 19.398 5.33333 16 5.33333 16C5.33333 16 5.33333 12.602 5.7715 10.9768C6.01797 10.0769 6.74369 9.36508 7.6611 9.12332C9.31793 8.6801 15.9863 8.66667 15.9863 8.66667C15.9863 8.66667 22.6547 8.66667 24.3115 9.10989ZM19.3958 16L13.8639 19.1429V12.8571L19.3958 16Z" fill="#FF0000"/>
</svg>
